PathFileType	4	(X/Y/Z)	/Users/niels/Desktop/University/Third Semester/Perception and Action/Exam/Gymnastics Motion Tracking/Code for Gym Tracking/Analyzed Data/Webcam_Backflip/id5_8_trajectory_Sports2D/id5_8_trajectory_Sports2D_px_person00.trc
DataRate	CameraRate	NumFrames	NumMarkers	Units	OrigDataRate	OrigDataStartFrame	OrigNumFrames
29.77777777777778	29.77777777777778	11	22	m	29.77777777777778	84	135
Frame#	Time	Hip			RHip			RKnee			RAnkle			RBigToe			RSmallToe			RHeel			LHip			LKnee			LAnkle			LBigToe			LSmallToe			LHeel			Neck			Head			Nose			RShoulder			RElbow			RWrist			LShoulder			LElbow			LWrist		
		X1	Y1	Z1	X2	Y2	Z2	X3	Y3	Z3	X4	Y4	Z4	X5	Y5	Z5	X6	Y6	Z6	X7	Y7	Z7	X8	Y8	Z8	X9	Y9	Z9	X10	Y10	Z10	X11	Y11	Z11	X12	Y12	Z12	X13	Y13	Z13	X14	Y14	Z14	X15	Y15	Z15	X16	Y16	Z16	X17	Y17	Z17	X18	Y18	Z18	X19	Y19	Z19	X20	Y20	Z20	X21	Y21	Z21	X22	Y22	Z22
84	2.8208955223880596	1.3129924625591711	-1.0799088450836194	0.0	1.0961367187499993	-0.9895751953125	0.0	0.2910934599571965	-0.997358762570427	0.0			0.0	0.5316496589532156	-0.6760112302509715	0.0	0.9400420690076098	-0.6560950169832271	0.0			0.0	1.4391449907720986	-0.978034951122216	0.0	1.8199659668841228	-0.9436845537021742	0.0			0.0	0.8820047890343061	-0.5317323428995829	0.0	0.6929209379233581	-0.6468948932786563	0.0	1.375857421875	-0.5512734375000002	0.0	0.6217762588969956	-0.8886382275233575	0.0	0.6954370335445783	-0.5135348928934348	0.0	0.6796007315270548	-0.7175518452647911	0.0	0.32428548707195876	-0.9353039138989268	0.0	0.2614213522220307	-1.0600503419906968	0.0	0.6222590779903447	-1.0581371964718036	0.0	0.8364206932186424	-1.0007913439207754	0.0	0.8671134279401701	-1.0595692964467367	0.0	0.7177126688839222	-1.0600576228847005	0.0
85	2.8544776119402986	1.3129928173029055	-1.0799085233791315	0.0	1.0961367187499993	-0.9895751953125	0.0	0.30358200382654776	-1.0023682007229817	0.0			0.0	0.5316496602571013	-0.6760112298724062	0.0	0.9400409416430952	-0.6560954984159245	0.0			0.0	1.4391467611328892	-0.9780351942592544	0.0	1.8199781360439378	-0.9436846948653044	0.0			0.0	0.8820861355636702	-0.5317808153781665	0.0	0.6929210776333101	-0.6468943330258312	0.0	1.375857421875	-0.5512734375000002	0.0	0.6278783441808852	-0.8865822865433527	0.0	0.7057483019741292	-0.5165482025219	0.0	0.6857776329076003	-0.715703143455049	0.0	0.33066547015042386	-0.9263546655461312	0.0	0.26465347618673396	-1.0593475156769032	0.0	0.5820571402189723	-1.05880200139439	0.0	0.8405894220520328	-1.0050353633554576	0.0	0.8523992918688785	-1.058678289877174	0.0	0.6931547535414587	-1.0600915443255183	0.0
86	2.888059701492537	1.3129930573047397	-1.079908304167684	0.0	1.0961367187499993	-0.9895751953125	0.0	0.3176773408030431	-1.0080189569641698	0.0			0.0	0.5316496620731784	-0.6760112293451332	0.0	0.9400391128669915	-0.6560962793812657	0.0			0.0	1.439147417265536	-0.9780352843709138	0.0	1.8199957283333672	-0.9436836758246485	0.0			0.0	0.8822707781802669	-0.5318908628754844	0.0	0.6929212187035736	-0.646894221111923	0.0	1.375857421875	-0.5512734375000002	0.0	0.6333394567080837	-0.88549579072054	0.0	0.7149071436257556	-0.5199450107443196	0.0	0.6910485667611979	-0.7144069196630404	0.0	0.33699504532622515	-0.9208028974686914	0.0	0.26817999814566057	-1.058552597530002	0.0	0.572446198119756	-1.059031566150883	0.0	0.8444686420261034	-1.0073913008337865	0.0	0.8457643789105306	-1.0575161397349904	0.0	0.6898027686196205	-1.0594717484769427	0.0
87	2.921641791044776	1.3129931851833763	-1.0799081864134004	0.0	1.0961367187499993	-0.9895751953125	0.0	0.3301893558893893	-1.0130245352149638	0.0			0.0	0.5316496639429753	-0.6760112288022636	0.0	0.9400374879894348	-0.6560969732732369	0.0			0.0	1.4391474364045949	-0.9780352869994254	0.0	1.8200149694119774	-0.9436805257360428	0.0			0.0	0.8825849639342515	-0.5320781433161627	0.0	0.6929213222716427	-0.6468943244697695	0.0	1.375857421875	-0.5512734375000002	0.0	0.6383431819506976	-0.8853279747558519	0.0	0.723183968434534	-0.5235208696876795	0.0	0.6957923610129567	-0.7137005447271673	0.0	0.3431847801472646	-0.9191963620233282	0.0	0.27196839718783783	-1.0578825986993883	0.0	0.5892048228194199	-1.059049357137233	0.0	0.8481292680682353	-1.0078467994229388	0.0	0.8458292981733929	-1.0563250812137195	0.0	0.7054228972554378	-1.058349280098069	0.0
88	2.955223880597015	1.3129932322730238	-1.0799081423133858	0.0	1.0961367187499993	-0.9895751953125	0.0	0.33901911245316235	-1.0165278826409005	0.0			0.0	0.531649664720744	-0.6760112285764492	0.0	0.9400363857077666	-0.6560974439944899	0.0			0.0	1.4391471874275605	-0.9780352528055261	0.0	1.8200256314574839	-0.943674274969913	0.0			0.0	0.8830076017708978	-0.5323301055066293	0.0	0.6929213824138962	-0.6468944888040129	0.0	1.375857421875	-0.5512734375000002	0.0	0.6432057526796702	-0.8857794545053951	0.0	0.730971053963427	-0.5271088902553968	0.0	0.7004055307062651	-0.7136799477653385	0.0	0.3490651629712452	-0.920769374948275	0.0	0.27623339074033093	-1.0573492626323109	0.0	0.6214118556572703	-1.058991962983523	0.0	0.851758589110746	-1.0070215814345191	0.0	0.8492737812619953	-1.0554243281890332	0.0	0.7314955372067723	-1.0570354689765364	0.0
89	2.9888059701492535	1.3129932333070675	-1.0799081405170856	0.0	1.0961367187499993	-0.9895751953125	0.0	0.3440441784837804	-1.0184567185495192	0.0			0.0	0.53164966234473	-0.6760112292662921	0.0	0.9400357965733637	-0.6560976955799896	0.0			0.0	1.4391468949510307	-0.9780352126375119	0.0	1.8200085416391627	-0.9436645961781035	0.0			0.0	0.8834167112649419	-0.5325740663606249	0.0	0.692921408402255	-0.646894633968565	0.0	1.375857421875	-0.5512734375000002	0.0	0.6482131498309229	-0.8863701429314984	0.0	0.7385420275902864	-0.5305946377390515	0.0	0.7051172153334002	-0.7144125147751891	0.0	0.354537958994083	-0.9242708273294861	0.0	0.28119568144218837	-1.0569285864260258	0.0	0.6576268310179528	-1.0589062697388016	0.0	0.8556053537644716	-1.0060202729726337	0.0	0.8527753842047411	-1.054943650889878	0.0	0.7582884992408716	-1.0558272488343845	0.0
90	3.0223880597014925	1.3129932150502774	-1.079908156668506	0.0	1.0961367187499993	-0.9895751953125	0.0	0.34629889723874824	-1.0192026824331197	0.0			0.0	0.5316496538818111	-0.6760112317233837	0.0	0.9400355782278619	-0.6560977888228251	0.0			0.0	1.4391466634341774	-0.9780351808415513	0.0	1.8199353924152004	-0.9436529355714931	0.0			0.0	0.8835256409266912	-0.5326391831362315	0.0	0.692921413279624	-0.6468947320513792	0.0	1.375857421875	-0.5512734375000002	0.0	0.6533948063252556	-0.8867254552569142	0.0	0.7458764558760062	-0.5339431485678302	0.0	0.7098821721072008	-0.7158735401965027	0.0	0.3596744656620982	-0.9282421668661996	0.0	0.28687065541189105	-1.0566683257002332	0.0	0.6885324954605968	-1.0588211331043298	0.0	0.8596100713362643	-1.0063463803628843	0.0	0.8548420581401348	-1.054693586922921	0.0	0.7785837338260513	-1.0548510759837693	0.0
91	3.0559701492537314	1.3129931937562673	-1.0799081758707803	0.0	1.0961367187499993	-0.9895751953125	0.0	0.34699693493264955	-1.0192466207739321	0.0			0.0	0.5316496362051903	-0.6760112368555465	0.0	0.9400355718588335	-0.6560977915426717	0.0			0.0	1.4391465195497068	-0.9780351610808087	0.0	1.819774251783314	-0.9436440923824568	0.0			0.0	0.8828361934637232	-0.5322284927467785	0.0	0.6929214081263255	-0.6468947842339644	0.0	1.375857421875	-0.5512734375000002	0.0	0.658383155013357	-0.8869131868618622	0.0	0.7526694416751134	-0.5371896399152424	0.0	0.7144489162028266	-0.7179756784630557	0.0	0.3644369203292899	-0.931333768535283	0.0	0.29293297973139876	-1.0566451483972399	0.0	0.7063972196677668	-1.0587169163428216	0.0	0.8632307785062908	-1.0093371148409434	0.0	0.8572463088714964	-1.0543608781469749	0.0	0.7885389970728668	-1.0540772653628685	0.0
92	3.08955223880597	1.3129931769540613	-1.0799081911512731	0.0	1.0961367187499993	-0.9895751953125	0.0	0.34702660543219926	-1.018984623667975	0.0			0.0	0.5316496077626796	-0.6760112451134369	0.0	0.9400356547125304	-0.6560977561606118	0.0			0.0	1.4391464506630895	-0.9780351516200885	0.0	1.8195052800161338	-0.9436478521720336	0.0			0.0	0.880663346571696	-0.5309336143214112	0.0	0.6929214002228202	-0.6468948033888994	0.0	1.375857421875	-0.5512734375000002	0.0	0.6624808858274676	-0.8874059878080183	0.0	0.7585421755238959	-0.5404134759523789	0.0	0.7185292669044756	-0.7206536206098401	0.0	0.36830833701553717	-0.9329137344792534	0.0	0.2987365527177899	-1.0569033776948722	0.0	0.705574697203811	-1.0584961437101357	0.0	0.8654724366353963	-1.0150548554173213	0.0	0.8650680257536218	-1.0537530813675764	0.0	0.7866121818450198	-1.0534689436445357	0.0
93	3.123134328358209	1.3129931665396688	-1.079908200689849	0.0	1.0961367187499993	-0.9895751953125	0.0	0.3467494280145621	-1.0186853476182727	0.0			0.0	0.5316495718310973	-0.6760112555456759	0.0	0.9400357520418356	-0.6560977145968503	0.0			0.0	1.4391464313227684	-0.9780351489639358	0.0	1.8191508986086562	-0.9436796835405635	0.0			0.0	0.87631725348994	-0.5283431921698664	0.0	0.6929213933165576	-0.646894803741562	0.0	1.375857421875	-0.5512734375000002	0.0	0.6649114284699195	-0.888692939698826	0.0	0.7632657889776595	-0.5437080203177067	0.0	0.7219070600436162	-0.7239233639865373	0.0	0.37040651063974234	-0.9330348602241386	0.0	0.3034737660848043	-1.057420240610522	0.0	0.6844258358263557	-1.0580692256710367	0.0	0.865043456502404	-1.0220653351306332	0.0	0.8850632479622864	-1.0527911688257807	0.0	0.7724917078387384	-1.0531130137508988	0.0
94	3.156716417910448	1.3129931615721986	-1.0799082052844435	0.0	1.0961367187499993	-0.9895751953125	0.0	0.3459630150243848	-1.0185125317502355	0.0			0.0	0.5316495412435531	-0.6760112644263472	0.0	0.9400358290851953	-0.656097681696052	0.0			0.0	1.4391464376536642	-0.9780351498334057	0.0	1.8188212500942715	-0.9437587109817447	0.0			0.0	0.8695472875413293	-0.5243075401886751	0.0	0.6929213886854135	-0.6468947962374608	0.0	1.375857421875	-0.5512734375000002	0.0	0.6651944038744105	-0.8909979385521088	0.0	0.7668605946612503	-0.5470816393893112	0.0	0.7245068960319027	-0.7278151208311797	0.0	0.37012881615023585	-0.9319209576606804	0.0	0.3063973562006546	-1.058120448160683	0.0	0.6464887973711525	-1.0573753989862915	0.0	0.861089068550583	-1.028716615768734	0.0	0.9231164479685636	-1.0513870483833456	0.0	0.7472251795739108	-1.053182571800524	0.0
